# xmcd CD database file
#
# Track frame offsets:
#	150
#	15750
#	27990
#	38608
#	53730
#	66475
#	81576
#	98176
#	111659
#	127386
#	137118
#	156491
#	167821
#	184387
#	200860
#	213388
#	229781
#	247451
#	265339
#	279352
#	294662
#	309444
#
# Disc length: 4390 seconds
#
# Revision: 0
# Processed by: cddbd v1.5.2PL0 Copyright (c) Steve Scherf et al.
# Submitted via: CDex 1.51
#
DISCID=60112416
DTITLE=Jazz Lips - Hotter Than That - CD4
DYEAR=2005
DGENRE=Jazz
TTITLE0=East 49th Street Blues
TTITLE1=Lil' Liza Jane
TTITLE2=Salee Dame
TTITLE3=Hindustan
TTITLE4=Blueberry Hill
TTITLE5=He's A Colonel From Kentucky
TTITLE6=E-flat Blues
TTITLE7=Blue Guitars
TTITLE8=You Rascal You
TTITLE9=The Tea Song
TTITLE10=Wailin' the Blues
TTITLE11=Joy
TTITLE12=My Four Reasons
TTITLE13=St. Louis Blues
TTITLE14=Muskrat Ramble
TTITLE15=Steamboat Stomp
TTITLE16=Hotter Than That
TTITLE17=Stomp Off, Let's Go
TTITLE18=Skid-Dat-De-Dat
TTITLE19=Madame Becassine
TTITLE20=Ballin' The Jack
TTITLE21=Old Fashoned Love
EXTD=YEAR: 2005
EXTT0=
EXTT1=
EXTT2=
EXTT3=
EXTT4=
EXTT5=
EXTT6=
EXTT7=
EXTT8=
EXTT9=
EXTT10=
EXTT11=
EXTT12=
EXTT13=
EXTT14=
EXTT15=
EXTT16=
EXTT17=
EXTT18=
EXTT19=
EXTT20=
EXTT21=
PLAYORDER=
